<svg width="84" height="84" viewBox="0 0 84 84" fill="none" xmlns="http://www.w3.org/2000/svg">
<path d="M38.5 52.5L28 42L38.5 52.5ZM28 42L38.5 31.5L28 42ZM28 42H56H28ZM10.5 42C10.5 37.8634 11.3148 33.7672 12.8978 29.9455C14.4808 26.1237 16.8011 22.6512 19.7261 19.7261C22.6512 16.8011 26.1237 14.4808 29.9455 12.8978C33.7672 11.3148 37.8634 10.5 42 10.5C46.1366 10.5 50.2328 11.3148 54.0545 12.8978C57.8763 14.4808 61.3488 16.8011 64.2739 19.7261C67.1989 22.6512 69.5192 26.1237 71.1022 29.9455C72.6852 33.7672 73.5 37.8634 73.5 42C73.5 50.3543 70.1813 58.3665 64.2739 64.2739C58.3665 70.1813 50.3543 73.5 42 73.5C33.6457 73.5 25.6335 70.1813 19.7261 64.2739C13.8187 58.3665 10.5 50.3543 10.5 42V42Z" stroke="#757575" stroke-width="2" stroke-linecap="round" stroke-linejoin="round"/>
</svg>
